<?xml version="1.0" standalone="no"?><!DOCTYPE svg PUBLIC "-//W3C//DTD SVG 1.1//EN" "http://www.w3.org/Graphics/SVG/1.1/DTD/svg11.dtd"><svg t="1648545438953" class="icon" viewBox="0 0 1024 1024" version="1.1" xmlns="http://www.w3.org/2000/svg" p-id="3022" xmlns:xlink="http://www.w3.org/1999/xlink" width="200" height="200"><defs><style type="text/css">@font-face { font-family: feedback-iconfont; src: url("//at.alicdn.com/t/font_1031158_u69w8yhxdu.woff2?t=1630033759944") format("woff2"), url("//at.alicdn.com/t/font_1031158_u69w8yhxdu.woff?t=1630033759944") format("woff"), url("//at.alicdn.com/t/font_1031158_u69w8yhxdu.ttf?t=1630033759944") format("truetype"); }
</style></defs><path d="M955.10528 470.3744l-276.3776 276.3776c-10.00448 9.99424-23.10144 14.99136-36.20864 14.99136-13.1072 0-26.20416-4.99712-36.20864-14.99136L461.50656 601.92768c-19.99872-19.99872-19.99872-52.41856 0-72.40704 19.99872-19.98848 52.40832-19.98848 72.40704 0l108.60544 108.61568 240.1792-240.1792c20.00896-19.98848 52.41856-19.97824 72.40704 0C975.104 417.95584 975.104 450.37568 955.10528 470.3744zM267.40736 363.02848l50.54464 0 0 50.54464 0 11.99104 0 38.22592 0 12.32896 0 38.21568 0 11.9808 0 38.56384 0 11.99104 0 50.20672-62.52544 0 0-50.20672 0-11.99104 0-38.56384-38.56384 0-11.99104 0-38.21568 0 0 0.33792-50.55488 0 0 38.22592 0 11.99104 0 50.20672L53.89312 627.07712l0-50.20672 0-11.99104 0-38.22592 0-12.31872 0-38.21568 0-12.00128 0-38.5536 0-11.99104 0-50.21696 50.21696 0 0-50.54464 50.54464 0 0-50.55488 62.208 0 0 49.88928 50.55488 0L267.4176 363.02848zM255.41632 374.6816l-50.55488 0 0-49.88928-38.5536 0 0 50.54464-50.21696 0 0 38.22592 0 11.99104 0 38.5536 38.5536 0 12.00128 0 38.21568 0 0-0.32768 50.55488 0 0-38.22592 0-11.99104L255.41632 374.6816zM445.3888 627.07712l-5.75488 0-38.5536 0-11.99104 0-50.21696 0 0-50.20672 0-11.99104 0-38.22592 0-11.99104 0-38.54336 0-12.00128 0-38.21568 0-12.32896 0-38.22592 0-11.9808L338.87232 325.12l0-12.31872 0-50.55488 50.21696 0 11.99104 0 38.5536 0 11.99104 0 38.21568 0 11.99104 0 50.55488 0 0 50.55488 50.5344 0 0 50.21696 0 12.30848 0 50.21696-50.5344 0 0 38.22592 50.5344 0 0 50.54464 0 11.9808 0 41.14432-48.35328-48.35328c-4.31104-4.31104-9.10336-7.97696-14.17216-11.10016l0-31.88736-38.56384 0-11.99104 0-38.21568 0-11.99104 0-38.5536 0 0 38.54336 0 11.99104 0 38.22592 22.9376 0C421.57056 587.008 428.68736 609.9968 445.3888 627.07712zM401.08032 413.56288l38.5536 0 11.99104 0 38.21568 0 11.99104 0 38.56384 0 0-38.22592 0-12.30848 0-38.23616-38.56384 0-11.99104 0-38.21568 0-11.99104 0-38.5536 0 0 0.33792 0 38.22592 0 11.9808L401.08032 413.56288zM674.07872 580.61824l15.74912-15.74912L686.3872 564.86912l0-50.54464-0.32768 0 0-38.21568 0-12.00128 0-38.5536 0-11.99104 0-38.22592 0-11.9808 0-38.56384 38.5536 0 12.00128 0 38.21568 0 11.9808 0 38.56384 0 0 50.54464 57.79456 0c1.54624-0.90112 3.13344-1.73056 4.74112-2.51904l0-60.0064-50.54464 0 0-50.55488-50.56512 0-11.9808 0-38.21568 0-12.00128 0-50.54464 0 0 50.55488-50.20672 0 0 50.54464 0 11.9808 0 38.22592 0 11.99104 0 38.5536 0 12.00128 0 38.21568 0 11.9808 0 50.55488 50.20672 0L674.05824 580.61824z" p-id="3023"></path></svg>