<?xml version="1.0" standalone="no"?><!DOCTYPE svg PUBLIC "-//W3C//DTD SVG 1.1//EN" "http://www.w3.org/Graphics/SVG/1.1/DTD/svg11.dtd"><svg t="1648877770576" class="icon" viewBox="0 0 1024 1024" version="1.1" xmlns="http://www.w3.org/2000/svg" p-id="4881" xmlns:xlink="http://www.w3.org/1999/xlink" width="200" height="200"><defs><style type="text/css">@font-face { font-family: feedback-iconfont; src: url("//at.alicdn.com/t/font_1031158_u69w8yhxdu.woff2?t=1630033759944") format("woff2"), url("//at.alicdn.com/t/font_1031158_u69w8yhxdu.woff?t=1630033759944") format("woff"), url("//at.alicdn.com/t/font_1031158_u69w8yhxdu.ttf?t=1630033759944") format("truetype"); }
</style></defs><path d="M176 384a95.536 95.536 0 0 0 54.24-16.8l170.032 102A95.92 95.92 0 0 0 496.016 560c58.144 0 104.448-51.872 94.608-111.664l216.368-195.744a95.84 95.84 0 0 0 25.04 3.408 96 96 0 1 0-96-96c0 14.56 3.328 28.304 9.12 40.656L545.12 381.616a95.52 95.52 0 0 0-114.688 12.4l-159.056-95.424A96 96 0 1 0 176 384z m208 576h240V656H384v304z m80-224h80v144h-80v-144zM80 960h240V512H80v448z m80-368h80v288h-80V592z m528 368h240V432H688v528z m80-448h80v368h-80V512z" fill="#1296db" p-id="4882"></path></svg>